HIERARCHY
ROOT root
{
	OFFSET 0.000000 0.000000 0.000000
	CHANNELS 6 Xposition Yposition Zposition Zrotation Yrotation Xrotation
	JOINT lhip
	{
		OFFSET 0.058581 -0.082280 -0.017664
		CHANNELS 3 Zrotation Yrotation Xrotation
		JOINT lknee
		{
			OFFSET 0.043451 -0.386469 0.008037
			CHANNELS 3 Zrotation Yrotation Xrotation
			JOINT lankle
			{
				OFFSET -0.014790 -0.426874 -0.037428
				CHANNELS 3 Zrotation Yrotation Xrotation
				JOINT ltoe
				{
					OFFSET 0.041054 -0.060286 0.122042
					CHANNELS 3 Zrotation Yrotation Xrotation
					End Site
					{
						OFFSET 0.000000 0.000000 0.000000
					}
				}
			}
		}
	}
	JOINT rhip
	{
		OFFSET -0.060310 -0.090513 -0.013543
		CHANNELS 3 Zrotation Yrotation Xrotation
		JOINT rknee
		{
			OFFSET -0.043257 -0.383688 -0.004843
			CHANNELS 3 Zrotation Yrotation Xrotation
			JOINT rankle
			{
				OFFSET 0.019056 -0.420046 -0.034562
				CHANNELS 3 Zrotation Yrotation Xrotation
				JOINT rtoe
				{
					OFFSET -0.034840 -0.062106 0.130323
					CHANNELS 3 Zrotation Yrotation Xrotation
					End Site
					{
						OFFSET 0.000000 0.000000 0.000000
					}
				}
			}
		}
	}
	JOINT lowerback
	{
		OFFSET 0.004439 0.124404 -0.038385
		CHANNELS 3 Zrotation Yrotation Xrotation
		JOINT upperback
		{
			OFFSET 0.004488 0.137956 0.026820
			CHANNELS 3 Zrotation Yrotation Xrotation
			JOINT chest
			{
				OFFSET -0.002265 0.056032 0.002855
				CHANNELS 3 Zrotation Yrotation Xrotation
				JOINT lowerneck
				{
					OFFSET -0.013390 0.211636 -0.033468
					CHANNELS 3 Zrotation Yrotation Xrotation
					JOINT upperneck
					{
						OFFSET 0.010113 0.088937 0.050410
						CHANNELS 3 Zrotation Yrotation Xrotation
						End Site
						{
							OFFSET 0.000000 0.000000 0.000000
						}
					}
				}
				JOINT lclavicle
				{
					OFFSET 0.071702 0.114000 -0.018898
					CHANNELS 3 Zrotation Yrotation Xrotation
					JOINT lshoulder
					{
						OFFSET 0.122921 0.045205 -0.019046
						CHANNELS 3 Zrotation Yrotation Xrotation
						JOINT lelbow
						{
							OFFSET 0.255332 -0.015649 -0.022946
							CHANNELS 3 Zrotation Yrotation Xrotation
							JOINT lwrist
							{
								OFFSET 0.265709 0.012698 -0.007375
								CHANNELS 3 Zrotation Yrotation Xrotation
								End Site
								{
									OFFSET 0.000000 0.000000 0.000000
								}
							}
						}
					}
				}
				JOINT rclavicle
				{
					OFFSET -0.082954 0.112472 -0.023707
					CHANNELS 3 Zrotation Yrotation Xrotation
					JOINT rshoulder
					{
						OFFSET -0.113228 0.046853 -0.008472
						CHANNELS 3 Zrotation Yrotation Xrotation
						JOINT relbow
						{
							OFFSET -0.260127 -0.014369 -0.031269
							CHANNELS 3 Zrotation Yrotation Xrotation
							JOINT rwrist
							{
								OFFSET -0.269108 0.006794 -0.006027
								CHANNELS 3 Zrotation Yrotation Xrotation
								End Site
								{
									OFFSET 0.000000 0.000000 0.000000
								}
							}
						}
					}
				}
			}
		}
	}
}
MOTION
Frames: 14
Frame Time: 0.033333
-0.368588 0.435996 0.992845 60.996160 -0.703109 83.208969 13.311529 -2.013997 -1.084402 -7.240145 -13.221683 9.756272 -7.316102 3.843988 -9.537600 0.000000 -0.000000 0.000000 -3.973621 -0.578921 5.966622 5.720081 10.202656 16.369717 2.716686 0.637184 -16.958274 0.000000 -0.000000 0.000000 0.747464 -0.332763 5.269972 1.103026 -3.062454 8.855134 -2.806700 -1.684346 3.735891 6.571945 8.247137 4.322028 -2.472693 0.424087 25.046155 -31.226243 2.372640 2.484338 -54.132819 -8.745337 10.490318 10.742970 -23.108830 0.337916 2.057020 -6.562664 -7.137465 28.774457 2.750245 1.919131 49.278924 9.188323 13.918857 -8.718743 19.175177 -4.859645 2.002023 3.931694 -9.038409 
-0.356516 0.444084 0.993324 58.725337 -0.310774 83.729624 13.081907 -1.411318 0.092618 -7.007072 -12.711629 8.844990 -6.383193 4.512947 -11.087994 0.000000 -0.000000 0.000000 -4.524567 0.210933 5.171398 5.857609 10.987418 16.889492 4.033196 1.200095 -16.503928 0.000000 -0.000000 0.000000 0.673179 -0.488322 4.951512 1.250604 -3.194629 8.746795 -2.822231 -1.792185 3.728824 6.649364 8.618870 4.216815 -2.677155 0.979728 25.378641 -31.051809 2.436388 2.471720 -54.308991 -8.739834 10.324445 10.772083 -22.766557 -0.103282 2.142758 -6.701106 -6.346836 28.735668 2.365712 2.025813 49.008179 9.288393 13.562001 -8.838869 19.198352 -5.825888 2.205845 3.950675 -8.604152 
-0.344581 0.452856 0.993770 56.689152 0.203832 84.289668 12.791574 -0.849190 1.168366 -6.599473 -12.512812 7.585560 -5.659081 5.198627 -12.237873 0.000000 -0.000000 0.000000 -4.939775 0.718265 4.036395 5.886105 11.629727 17.789101 4.969947 1.966943 -16.011990 0.000000 -0.000000 0.000000 0.702116 -0.808567 4.609945 1.391624 -3.196794 8.681239 -2.763970 -1.934995 3.747972 6.626730 9.017639 4.172218 -2.913056 1.569068 25.422158 -31.009491 2.441768 2.463883 -54.227994 -8.844614 10.268391 10.715478 -22.772667 -0.451863 2.403055 -6.651394 -6.305797 28.824039 1.982235 1.930649 48.728300 9.210144 13.441493 -9.156340 19.628196 -6.786170 2.180390 3.990318 -8.883366 
-0.329942 0.464099 0.994253 54.481518 0.893147 84.959455 12.332813 -0.052052 2.340381 -6.188750 -11.723244 5.895408 -4.534691 6.146972 -13.149918 0.000000 -0.000000 0.000000 -5.326707 1.299336 2.452942 5.846186 12.239919 19.180990 6.073298 2.768774 -15.300776 0.000000 -0.000000 0.000000 0.649685 -1.253051 4.374854 1.652431 -3.240591 8.479467 -2.624405 -2.106601 3.685444 6.528773 9.552686 4.164231 -3.213830 2.314193 25.472359 -30.841263 2.433393 2.417093 -54.075863 -9.074417 10.205922 10.643919 -22.924390 -0.717803 2.390573 -6.575010 -6.219645 29.079101 1.446165 1.908280 48.596354 9.096290 13.374510 -9.865626 20.482526 -8.141286 2.229215 4.070202 -9.319394 
-0.321536 0.471137 0.994541 53.342311 1.330998 85.301576 12.052707 0.430813 2.981740 -5.989216 -11.075596 4.821680 -3.865449 6.692376 -13.452297 0.000000 -0.000000 0.000000 -5.495514 1.678880 1.440829 5.811677 12.445955 20.172718 6.730636 3.146800 -14.780238 0.000000 -0.000000 0.000000 0.616083 -1.520385 4.380044 1.824203 -3.268151 8.317434 -2.521863 -2.217629 3.638994 6.428015 9.861849 4.163290 -3.378960 2.717662 25.497232 -30.688867 2.348701 2.399934 -53.925729 -9.319055 10.163693 10.594176 -23.151322 -0.927388 2.356916 -6.559176 -6.197345 29.286272 1.131716 1.902671 48.630776 9.019283 13.386754 -10.391232 21.144660 -8.979407 2.259059 4.136639 -9.570061 
-0.311417 0.480741 0.994877 51.762801 2.122143 85.889822 12.116098 0.212945 3.710021 -6.059062 -8.994725 3.224325 -4.347322 7.252679 -14.133641 0.000000 -0.000000 0.000000 -5.141735 2.763656 -0.240005 5.249579 12.264929 21.705151 7.581628 3.709055 -14.021695 0.000000 -0.000000 0.000000 0.622260 -1.464947 3.268017 2.182100 -3.511600 10.212044 -2.294786 -2.382637 2.869153 6.365186 10.458583 3.011575 -3.499086 3.256688 27.269545 -30.734356 0.987091 2.276484 -53.793880 -9.165760 11.585438 11.768362 -23.027816 -3.191198 5.241035 -7.873614 -7.288642 30.221887 1.400484 2.052251 48.126831 8.700190 13.574687 -11.541436 21.896846 -8.564977 0.638752 7.031140 -13.077059 
-0.301344 0.491200 0.994951 50.502767 2.553382 86.288359 11.541528 0.663517 4.364086 -5.821697 -8.029703 1.895111 -3.498191 7.871598 -14.402040 0.000000 -0.000000 0.000000 -5.387632 3.281042 -1.773855 5.088080 12.552122 23.367043 8.340491 3.997540 -13.148206 0.000000 -0.000000 0.000000 0.361861 -1.591447 3.171452 2.470544 -3.603091 10.488463 -2.146950 -2.477023 2.756042 6.173084 10.829653 2.952209 -3.664409 3.633898 27.106176 -30.513731 0.443139 2.225501 -53.360457 -9.727229 11.763445 11.938728 -23.632216 -3.804753 5.444209 -7.688688 -7.313153 30.655434 1.221898 1.997250 48.464341 8.509913 13.823896 -12.750567 22.906907 -9.794320 0.745161 7.004627 -13.563120 
-0.291650 0.501299 0.994735 49.214297 2.944763 86.646638 11.009046 1.193408 5.126178 -5.678232 -7.165510 0.273707 -2.689003 8.381604 -14.387994 0.000000 -0.000000 0.000000 -5.611419 3.821451 -3.380864 4.953186 12.922445 25.121647 9.024162 4.203860 -12.283993 0.000000 -0.000000 0.000000 0.101798 -1.759768 3.148064 2.690350 -3.558540 10.574953 -2.042788 -2.486174 2.725936 6.021363 11.200431 2.980522 -3.763823 3.950818 26.906616 -30.175814 -0.014852 2.206093 -52.937309 -10.370512 11.778339 12.210795 -24.367028 -4.470445 5.782398 -7.522456 -7.447767 30.979254 1.154233 2.044239 49.053760 8.343451 14.147585 -13.985873 23.697408 -11.234571 0.857556 6.885805 -13.883745 
-0.282455 0.511573 0.994288 48.048757 3.309449 87.021190 10.636792 1.722552 5.719381 -5.822020 -6.676234 -1.252443 -1.990004 8.713948 -14.291252 0.000000 -0.000000 0.000000 -5.896556 4.217422 -5.135350 4.924658 13.153808 26.999423 9.670001 4.380866 -11.367263 0.000000 -0.000000 0.000000 -0.121858 -2.039126 3.179730 2.871764 -3.499881 10.544733 -2.000792 -2.469479 2.700167 5.929668 11.591748 2.959842 -3.864886 4.249155 26.866634 -29.896217 -0.368733 2.104337 -52.362143 -11.010158 11.792274 12.493858 -25.141771 -5.140154 6.106612 -7.457210 -7.718190 31.316223 1.150707 2.056585 49.617566 8.333900 14.534901 -14.964023 24.053829 -12.410715 1.049203 6.816988 -14.084567 
-0.271401 0.523843 0.993671 46.343792 3.684480 87.329044 10.239860 2.368739 6.527475 -6.314645 -6.174271 -2.938020 -1.186721 9.206048 -14.235437 0.000000 -0.000000 0.000000 -6.243092 4.739897 -7.325370 4.905558 13.367440 29.446494 10.361195 4.488350 -10.164230 0.000000 -0.000000 0.000000 -0.458154 -2.365392 3.260581 3.035341 -3.263068 10.539974 -1.972709 -2.381668 2.683981 5.837255 12.091992 2.975179 -3.993537 4.580513 26.854696 -29.562400 -0.747518 1.913247 -51.557447 -11.746382 11.818319 12.765768 -26.049663 -5.862894 6.671248 -7.430659 -8.048071 31.759124 1.238009 2.076995 50.176221 8.540760 15.041971 -15.743384 24.028404 -13.353605 1.056790 6.723767 -13.908535 
-0.263368 0.533379 0.993253 44.866817 3.976559 87.472812 9.938492 2.754556 7.001278 -6.748838 -5.598492 -3.838308 -0.619878 9.540715 -14.246391 0.000000 -0.000000 0.000000 -6.390342 5.137123 -9.093778 4.853696 13.325334 31.449493 10.800477 4.325632 -9.118160 0.000000 -0.000000 0.000000 -0.746951 -2.566301 3.482710 3.146873 -3.040120 10.471615 -1.944011 -2.283538 2.687760 5.757681 12.449147 2.956011 -4.117830 4.844930 26.829068 -29.256463 -1.016287 1.755791 -50.903970 -12.342666 11.874861 12.794350 -26.654295 -6.332191 7.176559 -7.468142 -8.323677 32.047992 1.393067 2.062479 50.526825 8.756097 15.527038 -16.095151 23.855855 -13.823274 1.060608 6.664691 -13.654505 
-0.256060 0.542589 0.993134 43.351690 4.273350 87.514525 9.541040 2.992692 7.264472 -7.002394 -4.986342 -4.268352 -0.070003 9.968389 -14.275381 0.000000 -0.000000 0.000000 -6.392128 5.450569 -10.709953 4.693536 12.947919 33.279642 11.061739 3.845218 -8.017217 0.000000 -0.000000 0.000000 -0.990687 -2.734229 3.882693 3.191624 -2.834647 10.306752 -1.907539 -2.209492 2.697000 5.616570 12.782265 2.918872 -4.233063 5.205949 26.851243 -28.954186 -1.377991 1.596587 -50.330309 -12.832614 11.834496 12.912864 -26.860470 -6.650248 7.248142 -7.547667 -8.268573 32.248592 1.679035 2.067234 50.828315 8.923965 15.982309 -16.285512 23.687161 -14.047889 1.330353 6.649676 -13.459370 
-0.249351 0.551252 0.993225 41.838393 4.546541 87.499916 9.030365 3.177039 7.324918 -7.072811 -4.314425 -4.291761 0.488581 10.490765 -14.365426 0.000000 -0.000000 0.000000 -6.261134 5.579853 -12.094193 4.384074 12.212965 34.830833 10.922095 2.980574 -7.134993 0.000000 -0.000000 0.000000 -1.189282 -2.837083 4.295739 3.164758 -2.656691 10.107508 -1.887207 -2.158778 2.722023 5.404231 13.063427 2.945426 -4.251857 5.590052 26.875723 -28.630815 -1.867234 1.522075 -49.753162 -13.253078 11.698727 12.866208 -26.751908 -6.816760 7.131123 -7.673767 -8.195789 32.327621 2.010449 2.127816 51.151253 9.007162 16.372993 -16.373445 23.644860 -14.074132 1.641744 6.670855 -13.391993 
-0.243250 0.559515 0.993381 40.500832 4.850381 87.495195 8.558776 3.280879 7.161285 -7.069820 -3.619595 -4.019571 0.975883 10.935972 -14.500771 0.000000 -0.000000 0.000000 -5.951279 5.439688 -13.165029 3.956124 11.035689 35.976501 10.164066 1.610884 -6.808933 0.000000 -0.000000 0.000000 -1.285591 -2.923681 4.731689 3.112534 -2.573357 9.807146 -1.886544 -2.140640 2.777273 5.166591 13.247041 2.963475 -4.220194 5.903752 26.926455 -28.264923 -2.375144 1.517218 -49.299387 -13.692673 11.508343 12.642583 -26.438793 -6.912884 7.194664 -7.705731 -8.197398 32.276935 2.297654 2.192925 51.491545 8.962306 16.684151 -16.442782 23.816008 -13.957733 1.826365 6.725291 -13.346790 
